<?xml version="1.0" encoding="UTF-8" standalone="no"?>
<svg
   width="400"
   height="400px"
   viewBox="0 0 400 400"
   version="1.1"
   id="svg1"
   sodipodi:docname="test.svg"
   xmlns:inkscape="http://www.inkscape.org/namespaces/inkscape"
   xmlns:sodipodi="http://sodipodi.sourceforge.net/DTD/sodipodi-0.dtd"
   xmlns="http://www.w3.org/2000/svg"
   xmlns:svg="http://www.w3.org/2000/svg">
  <defs
     id="defs1" />
  <sodipodi:namedview
     id="namedview1"
     pagecolor="#ffffff"
     bordercolor="#000000"
     borderopacity="0.25"
     inkscape:showpageshadow="2"
     inkscape:pageopacity="0.0"
     inkscape:pagecheckerboard="0"
     inkscape:deskcolor="#d1d1d1" />
  <path
     d="m 65,32.1875 q -0.957031,-0.683594 -2.636719,-0.683594 -2.226562,0 -3.671875,2.089844 -1.445312,2.070312 -1.445312,5.46875 V 50 H 53.417969 V 28.398437 h 3.828125 v 4.394532 h 0.07813 q 1.640625,-4.765625 5.664062,-4.765625 1.308594,0 2.011719,0.292968 z M 99.707031,50 H 95.878906 V 37.597656 q 0,-3.515625 -1.09375,-5.019531 -1.09375,-1.523438 -3.59375,-1.523438 -2.109375,0 -3.613281,1.972657 Q 86.074219,35 86.074219,37.695312 V 50 H 82.246094 V 37.207031 q 0,-6.152344 -4.746094,-6.152344 -2.1875,0 -3.632813,1.875 -1.425781,1.875 -1.425781,4.785157 V 50 H 68.613281 V 28.398437 h 3.828125 v 3.417969 h 0.07813 q 2.304688,-3.925781 6.738281,-3.925781 2.167969,0 3.828125,1.191406 1.660157,1.191406 2.304688,3.222656 2.402344,-4.414062 7.1875,-4.414062 7.128906,0 7.128906,8.789062 z m 16.757809,-0.214844 q -1.25,0.683594 -3.3789,0.683594 -5.80078,0 -5.80078,-6.425781 V 31.5625 h -3.71094 v -3.164063 h 3.71094 v -5.195312 l 3.80859,-1.210938 v 6.40625 h 5.37109 V 31.5625 h -5.37109 v 11.796875 q 0,2.128906 0.72266,3.046875 0.72265,0.917969 2.40234,0.917969 1.28906,0 2.24609,-0.722657 z m 22.10938,-21.386719 -9.80469,24.863282 q -2.73437,6.914062 -7.71484,6.914062 -1.42578,0 -2.44141,-0.3125 v -3.359375 q 1.11328,0.429688 2.14844,0.429688 2.59766,0 3.88672,-3.046875 l 1.66015,-3.925782 -8.47656,-21.5625 h 4.23828 l 5.64453,16.230469 0.46875,1.777344 h 0.0977 q 0.11719,-0.605469 0.46875,-1.738281 l 5.89844,-16.269532 z m 21.17187,0 -9.80468,24.863282 q -2.73438,6.914062 -7.71485,6.914062 -1.42578,0 -2.4414,-0.3125 v -3.359375 q 1.11328,0.429688 2.14843,0.429688 2.59766,0 3.88672,-3.046875 l 1.66016,-3.925782 -8.47656,-21.5625 h 4.23828 l 5.64453,16.230469 0.46875,1.777344 h 0.0977 q 0.11719,-0.605469 0.46875,-1.738281 l 5.89844,-16.269532 z M 181.875,50 h -3.82813 v -3.59375 h -0.0781 q -2.36328,4.101562 -7.34375,4.101562 -4.10156,0 -6.52344,-2.910156 -2.42187,-2.929687 -2.42187,-7.890625 0,-5.351562 2.73437,-8.574219 2.73438,-3.242187 7.14844,-3.242187 4.41406,0 6.40625,3.4375 h 0.0781 V 18.027344 h 3.82813 z m -3.80859,-12.851563 q 0,-2.597656 -1.71875,-4.335937 -1.69922,-1.757813 -4.19922,-1.757813 -3.04688,0 -4.80469,2.285157 -1.75781,2.265625 -1.75781,6.191406 0,3.613281 1.67968,5.722656 1.69922,2.089844 4.51172,2.089844 2.77344,0 4.53125,-2.050781 1.75782,-2.070313 1.75782,-5.136719 z M 187.5,45.332031 q 2.89062,2.089844 6.23047,2.089844 4.47265,0 4.47265,-2.929688 0,-1.25 -0.97656,-2.050781 -0.97656,-0.820312 -3.96484,-1.933594 -3.59375,-1.445312 -4.66797,-2.851562 -1.07422,-1.425781 -1.07422,-3.4375 0,-2.871094 2.42188,-4.589844 2.4414,-1.738281 5.99609,-1.738281 2.75391,0 5.11719,0.957031 v 3.691406 q -2.42188,-1.5625 -5.48828,-1.5625 -1.83594,0 -2.98829,0.800782 -1.15234,0.800781 -1.15234,2.109375 0,1.289062 0.82031,2.011718 0.83985,0.722657 3.69141,1.855469 3.61328,1.347656 4.88281,2.792969 1.26953,1.445312 1.26953,3.574219 0,2.96875 -2.4414,4.6875 -2.42188,1.699218 -6.28907,1.699218 -3.35937,0 -5.85937,-1.269531 z"
     id="text1"
     style="font-size:40px;font-family:'microsoft yahei';fill:#cd0000"
     aria-label="rmtyyds" />
</svg>
